<?xml version="1.0" encoding="UTF-8" standalone="no"?>
<svg
   xmlns:dc="http://purl.org/dc/elements/1.1/"
   xmlns:cc="http://creativecommons.org/ns#"
   xmlns:rdf="http://www.w3.org/1999/02/22-rdf-syntax-ns#"
   xmlns:svg="http://www.w3.org/2000/svg"
   xmlns="http://www.w3.org/2000/svg"
   xmlns:sodipodi="http://sodipodi.sourceforge.net/DTD/sodipodi-0.dtd"
   xmlns:inkscape="http://www.inkscape.org/namespaces/inkscape"
   height="210"
   width="210"
   version="1.1"
   x="0px"
   y="0px"
   viewBox="0 0 428.4 554.4"
   enable-background="new 0 0 612 792"
   xml:space="preserve"
   id="svg2"
   inkscape:version="0.91 r13725"
   sodipodi:docname="dino.svg"
   style="fill:#000000"><metadata
     id="metadata114"><rdf:RDF><cc:Work
         rdf:about=""><dc:format>image/svg+xml</dc:format><dc:type
           rdf:resource="http://purl.org/dc/dcmitype/StillImage" /><dc:title></dc:title></cc:Work></rdf:RDF></metadata><defs
     id="defs112" /><sodipodi:namedview
     pagecolor="#ffffff"
     bordercolor="#666666"
     borderopacity="1"
     objecttolerance="10"
     gridtolerance="10"
     guidetolerance="10"
     inkscape:pageopacity="0"
     inkscape:pageshadow="2"
     inkscape:window-width="1234"
     inkscape:window-height="683"
     id="namedview110"
     showgrid="false"
     inkscape:zoom="0.78666667"
     inkscape:cx="150"
     inkscape:cy="150"
     inkscape:window-x="75"
     inkscape:window-y="24"
     inkscape:window-maximized="0"
     inkscape:current-layer="svg2" /><g
     display="none"
     id="g4"
     style="display:none"
     transform="translate(0,-237.6)"><g
       display="inline"
       id="g6"
       style="display:inline"><g
         display="none"
         id="g8"
         style="display:none"><g
           display="inline"
           id="g10"
           style="display:inline"><path
             d="m 514.084,452.966 -17.987,-0.006 0.024,-35.979 17.979,0.007 c 14.88,0 26.989,-12.112 26.989,-26.996 l 0,-71.967 c 0,-14.884 -12.109,-26.996 -27.002,-26.996 l -17.993,0 0,-35.98 17.987,0 c 34.73,0 62.981,28.257 62.981,62.976 l 0,71.967 c 0.004,34.717 -28.247,62.974 -62.978,62.974 l 0,0 z"
             id="path12"
             inkscape:connector-curvature="0"
             style="fill:#000000" /><path
             d="m 0,580.521 c 0,24.864 19.964,44.981 44.64,44.981 l 522.713,0 c 24.677,0 44.646,-20.117 44.646,-44.981 L 0,580.521 Z"
             id="path14"
             inkscape:connector-curvature="0"
             style="fill:#000000" /><path
             d="m 260.362,79.223 c 20.19,60.583 -31.996,76.746 -31.996,76.746 l -0.239,0.374 c 0.526,-0.881 12.638,-22.118 -1.903,-65.743 -20.19,-60.583 31.996,-76.74 31.996,-76.74 l 0.239,-0.367 c -0.533,0.875 -12.632,22.124 1.903,65.73 z"
             id="path16"
             inkscape:connector-curvature="0"
             style="fill:#000000" /><path
             d="m 323.063,79.223 c 20.187,60.583 -31.996,76.746 -31.996,76.746 l -0.239,0.374 c 0.521,-0.881 12.632,-22.118 -1.903,-65.743 -20.196,-60.583 32.002,-76.74 32.002,-76.74 l 0.245,-0.367 c -0.539,0.875 -12.645,22.124 1.891,65.73 z"
             id="path18"
             inkscape:connector-curvature="0"
             style="fill:#000000" /><path
             d="m 385.764,79.223 c 20.19,60.583 -31.988,76.746 -31.988,76.746 l -0.238,0.374 c 0.52,-0.881 12.632,-22.118 -1.903,-65.743 -20.188,-60.583 32.002,-76.74 32.002,-76.74 l 0.238,-0.367 c -0.535,0.875 -12.641,22.124 1.889,65.73 z"
             id="path20"
             inkscape:connector-curvature="0"
             style="fill:#000000" /><path
             d="m 135.065,192.078 0,287.878 c 0,39.78 32.192,71.966 71.966,71.966 l 197.925,0 c 39.774,0 71.967,-32.186 71.967,-71.966 l 0,-287.878 -341.858,0 z m 287.878,278.881 c 0,4.964 -4.033,8.997 -8.997,8.997 -4.978,0 -8.996,-4.033 -8.996,-8.997 l 0,-233.905 c 0,-4.963 4.015,-8.997 8.996,-8.997 4.964,0 8.997,4.033 8.997,8.997 l 0,233.905 z"
             id="path22"
             inkscape:connector-curvature="0"
             style="fill:#000000" /></g><text
           transform="translate(-9.765625e-4,717.3037)"
           display="inline"
           font-size="30.6006"
           id="text24"
           style="font-size:30.60059929px;font-family:Arial-BoldMT;display:inline">Created by Olivier Guin</text>
<text
           transform="translate(-9.765625e-4,747.9063)"
           display="inline"
           font-size="30.6006"
           id="text26"
           style="font-size:30.60059929px;font-family:Arial-BoldMT;display:inline">from the Noun Project</text>
</g><g
         id="g28"><g
           id="g30"><path
             d="m 361.756,194.489 c -2.75,0 -5,-2.25 -5,-5 l 0,-19.239 c 0,-2.75 -2.25,-5 -5,-5 l -309.01,0 c -2.75,0 -5,2.25 -5,5 l 0,19.239 c 0,2.75 0,5.212 0,5.472 0,0.26 0,2.722 0,5.472 l 0,10.279 c 0,2.75 2.25,5 5,5 l 294.39,0 c 2.75,0 5,2.25 5,5 l 0,19.239 c 0,2.75 2.25,5 5,5 l 231.46,0 c 2.75,0 5,2.25 5,5 l 0,280.506 c 0,2.75 2.25,5 5,5 l 4.619,0 c 2.75,0 5,-2.25 5,-5 l 0,-330.968 c 0,-2.75 -2.25,-5 -5,-5 l -231.459,0 z"
             id="path32"
             inkscape:connector-curvature="0"
             style="fill:#000000" /></g><path
           d="m 564.749,258.033 -231.46,0 c -2.75,0 -5,-2.25 -5,-5 l 0,-19.239 c 0,-2.75 -2.25,-5 -5,-5 l -309.01,0 c -2.75,0 -5,2.25 -5,5 l 0,19.239 c 0,2.75 0,5.212 0,5.472 0,0.259 0,2.721 0,5.471 l 0,330.024 c 0,2.75 2.25,5 5,5 l 30.784,0 c 2.75,0 4.992,-0.282 4.981,-0.627 0,0 0,0 0,-0.316 0,-26.307 16.469,-47.631 36.785,-47.631 20.315,0 36.785,21.324 36.785,47.631 0,0.316 0,0.316 0,0.316 -0.01,0.345 2.231,0.627 4.981,0.627 l 318.27,0 c 2.75,0 4.992,-0.282 4.98,-0.627 0,0 0,0 0,-0.316 0,-26.307 16.471,-47.631 36.785,-47.631 20.314,0 36.784,21.324 36.784,47.631 0,0.316 0,0.316 0,0.316 -0.01,0.345 2.231,0.627 4.981,0.627 l 34.35,0 c 2.75,0 5,-2.25 5,-5 l 0,-330.967 c 0.004,-2.75 -2.246,-5 -4.996,-5 z m -381.245,208.872 -132.041,0 c 0,-0.117 -0.003,-0.235 -0.003,-0.354 0,-36.002 17.411,-66.751 41.982,-79.124 -8.416,-7.192 -13.758,-17.877 -13.758,-29.815 0,-21.657 17.557,-39.214 39.214,-39.214 21.657,0 39.214,17.557 39.214,39.214 0,12.443 -5.802,23.524 -14.841,30.708 23.649,12.925 40.236,43.084 40.236,78.231 0.001,0.119 -0.002,0.237 -0.003,0.354 z m 81.591,-71.449 0,-8.864 c 0,-2.75 2.25,-5 5,-5 l 106.014,0 c 2.75,0 5,2.25 5,5 l 0,8.864 c 0,2.75 -2.25,5 -5,5 l -106.014,0 c -2.75,0 -5,-2.25 -5,-5 z m 271.641,44.331 c 0,2.75 -2.25,5 -5,5 l -172.037,0 c -2.75,0 -5,-2.25 -5,-5 l 0,-6.271 c 0,-2.75 2.25,-5 5,-5 l 172.037,0 c 2.75,0 5,2.25 5,5 l 0,6.271 z m 0,-44.331 c 0,2.75 -2.25,5 -5,5 l -128.65,0 c -2.75,0 -5,-2.25 -5,-5 l 0,-8.864 c 0,-2.75 2.25,-5 5,-5 l 128.65,0 c 2.75,0 5,2.25 5,5 l 0,8.864 z m 3.773,-48.103 c 0,2.75 -2.25,5 -5,5 l -265.414,0 c -2.75,0 -5,-2.25 -5,-5 l 0,-6.035 c 0,-2.75 2.25,-5 5,-5 l 265.414,0 c 2.75,0 5,2.25 5,5 l 0,6.035 0,0 z"
           id="path34"
           inkscape:connector-curvature="0"
           style="fill:#000000" /></g></g><g
       id="g36"><g
         display="inline"
         id="g38"
         style="display:inline"><path
           d="m 48.745,555.143 c 0,3.301 2.7,6 6,6 l 78,0 c 3.3,0 6,-2.699 6,-6 l 0,-326.643 c 0,-3.3 -2.7,-6 -6,-6 l -78,0 c -3.3,0 -6,2.7 -6,6 l 0,326.643 z"
           id="path40"
           inkscape:connector-curvature="0"
           style="fill:#000000" /></g><g
         display="inline"
         id="g42"
         style="display:inline"><path
           d="m 154.745,555.143 c 0,3.301 2.7,6 6,6 l 78,0 c 3.3,0 6,-2.699 6,-6 l 0,-246.643 c 0,-3.3 -2.7,-6 -6,-6 l -78,0 c -3.3,0 -6,2.7 -6,6 l 0,246.643 z"
           id="path44"
           inkscape:connector-curvature="0"
           style="fill:#000000" /></g><g
         display="inline"
         id="g46"
         style="display:inline"><path
           d="m 260.745,555.143 c 0,3.301 2.7,6 6,6 l 78,0 c 3.3,0 6,-2.699 6,-6 l 0,-198.643 c 0,-3.3 -2.7,-6 -6,-6 l -78,0 c -3.3,0 -6,2.7 -6,6 l 0,198.643 z"
           id="path48"
           inkscape:connector-curvature="0"
           style="fill:#000000" /></g><g
         display="inline"
         id="g50"
         style="display:inline"><path
           d="m 367.245,555.143 c 0,3.301 2.7,6 6,6 l 78,0 c 3.3,0 6,-2.699 6,-6 l 0,-134.643 c 0,-3.3 -2.7,-6 -6,-6 l -78,0 c -3.3,0 -6,2.7 -6,6 l 0,134.643 z"
           id="path52"
           inkscape:connector-curvature="0"
           style="fill:#000000" /></g><g
         display="inline"
         id="g54"
         style="display:inline"><path
           d="m 479.668,472.5 c -3.3,0 -6,2.7 -6,6 l 0,83.893 c 0,3.301 2.7,6 6,6 l 78,0 c 3.3,0 6,-2.699 6,-6 l 0,-83.893 c 0,-3.3 -2.7,-6 -6,-6 l -78,0 z"
           id="path56"
           inkscape:connector-curvature="0"
           style="fill:#000000" /></g><path
         display="inline"
         d="m 599.733,561.798 c 0,-4.228 -4.552,-7.655 -10.164,-7.655 l -566.671,0 c -5.614,0 -10.165,3.429 -10.165,7.655 l 0,24.243 c 0,4.228 4.551,7.655 10.165,7.655 l 566.671,0 c 5.612,0 10.164,-3.429 10.164,-7.655 l 0,-24.243 0,0 z"
         id="path58"
         inkscape:connector-curvature="0"
         style="display:inline;fill:#000000" /><g
         display="inline"
         id="g60"
         style="display:inline"><path
           d="m 559.019,383.797 c 3.294,0.211 4.785,-2.034 3.315,-4.989 l -42.932,-86.299 c -1.471,-2.955 -4.166,-3.124 -5.993,-0.375 l -17.035,25.632 c -1.827,2.749 -5.626,3.59 -8.442,1.87 L 344.786,232.218 c -2.816,-1.72 -5.113,-3.452 -5.104,-3.85 0.01,-0.398 -0.545,-0.736 -1.23,-0.752 -0.687,-0.016 -1.435,-0.142 -1.661,-0.281 -0.228,-0.139 -0.479,-0.145 -0.559,-0.013 -0.08,0.132 -2.846,0.177 -6.145,0.101 l -45.019,-1.036 c -3.299,-0.076 -8.36,-1.446 -11.248,-3.045 L 63.845,107.058 c -2.887,-1.599 -6.557,-0.545 -8.156,2.342 l -6.299,11.372 c -1.599,2.887 -0.545,6.557 2.342,8.156 l 214.312,118.688 c 2.887,1.599 5.246,3.032 5.243,3.185 -0.003,0.153 0.232,0.283 0.523,0.29 0.291,0.007 0.689,0.101 0.884,0.208 0.195,0.107 0.401,0.113 0.458,0.011 0.057,-0.102 2.802,-0.124 6.102,-0.047 l 44.654,1.027 c 3.299,0.076 8.303,1.545 11.119,3.265 l 139.055,84.921 c 2.816,1.72 3.627,5.375 1.8,8.124 l -15.723,23.658 c -1.827,2.749 -0.627,5.169 2.666,5.38 l 96.194,6.159 z"
           id="path62"
           inkscape:connector-curvature="0"
           style="fill:#000000" /></g></g></g><g
     display="none"
     id="g64"
     style="display:none"
     transform="translate(0,-237.6)"><circle
       display="inline"
       cx="306.98001"
       cy="299.25"
       r="284"
       id="circle66"
       style="display:inline;fill:#000000" /></g><g
     id="g68"
     style="fill:#c87137"
     transform="translate(-83.898307,-2.684746)"><g
       id="g70"
       style="fill:#c87137"><circle
         cx="478.08401"
         cy="67.328003"
         r="7.6789999"
         id="circle72"
         style="fill:#c87137" /><circle
         cx="517.73199"
         cy="67.328003"
         r="7.6789999"
         id="circle74"
         style="fill:#c87137" /><g
         id="g76"
         style="fill:#c87137"><path
           d="m 498.345,100.291 c 17.253,19.604 45.826,12.25 61.996,5.74 C 557.668,78.576 532.583,53.489 532.583,53.489 382.016,10.144 369.465,86.604 369.465,86.604 401.406,337.551 238.291,370.595 238.291,370.595 162.111,417.543 28.399,286.191 28.399,286.191 119.653,482.385 412.19,493.788 412.19,493.788 c 3.475,-0.917 6.846,-1.86 10.111,-2.826 216.212,-63.964 -10.111,-234.433 -10.111,-234.433 -20.013,-63.878 47.393,-84.41 47.393,-84.41 74.491,-8.938 97.952,-32.581 100.704,-56.428 -61.942,14.403 -61.942,-15.4 -61.942,-15.4 z M 513.17,56.033 c 6.492,0 11.752,5.264 11.752,11.754 0,6.491 -5.26,11.752 -11.752,11.752 -6.489,0 -11.749,-5.261 -11.749,-11.752 0,-6.49 5.26,-11.754 11.749,-11.754 z M 160.402,397.82 c -3.855,0 -6.98,-3.126 -6.98,-6.98 0,-3.855 3.125,-6.98 6.98,-6.98 3.854,0 6.979,3.125 6.979,6.98 0,3.854 -3.124,6.98 -6.979,6.98 z m 71.61,21.782 c -4.945,0 -8.953,-4.008 -8.953,-8.953 0,-4.945 4.008,-8.954 8.953,-8.954 4.946,0 8.955,4.009 8.955,8.954 0,4.945 -4.009,8.953 -8.955,8.953 z m 22.636,-22.061 c -7.557,0 -13.682,-6.125 -13.682,-13.681 0,-7.555 6.125,-13.682 13.682,-13.682 7.556,0 13.683,6.126 13.683,13.682 0,7.556 -6.127,13.681 -13.683,13.681 z m 33.986,-25.778 c -3.167,0 -5.734,-2.568 -5.734,-5.734 0,-3.168 2.567,-5.736 5.734,-5.736 3.168,0 5.735,2.568 5.735,5.736 0,3.166 -2.567,5.734 -5.735,5.734 z m 46.203,29.931 c -9.849,0 -17.834,-7.985 -17.834,-17.834 0,-9.848 7.985,-17.833 17.834,-17.833 9.851,0 17.834,7.985 17.834,17.833 0,9.849 -7.983,17.834 -17.834,17.834 z m 12.921,-63.488 c -9.849,0 -17.832,-7.984 -17.832,-17.833 0,-9.85 7.983,-17.833 17.832,-17.833 9.851,0 17.834,7.984 17.834,17.833 0,9.849 -7.984,17.833 -17.834,17.833 z m 26.788,-42.654 c -4.944,0 -8.954,-4.008 -8.954,-8.955 0,-4.944 4.01,-8.954 8.954,-8.954 4.944,0 8.954,4.01 8.954,8.954 0,4.947 -4.01,8.955 -8.954,8.955 z M 473.822,79.539 c -6.489,0 -11.75,-5.261 -11.75,-11.752 0,-6.491 5.261,-11.754 11.75,-11.754 6.492,0 11.752,5.263 11.752,11.754 0,6.491 -5.26,11.752 -11.752,11.752 z"
           id="path78"
           style="fill:#c87137"
           inkscape:connector-curvature="0" /><path
           d="m 374.418,160.784 c 0,0 -45.646,-52.463 -46.837,9.368 0,0 1.185,32.789 46.837,7.495 45.652,-25.296 0,-16.863 0,-16.863 z"
           id="path80"
           style="fill:#c87137"
           inkscape:connector-curvature="0" /><path
           d="m 368.829,223.744 c 0,0 -55.566,-63.868 -57.02,11.405 0,0 1.444,39.917 57.02,9.124 55.578,-30.794 0,-20.529 0,-20.529 z"
           id="path82"
           style="fill:#c87137"
           inkscape:connector-curvature="0" /><path
           d="m 296.926,345.372 c 0,0 -13.524,-57.356 -38.822,-11.46 0,0 -12.051,25.057 32.166,24.106 44.22,-0.95 6.656,-12.646 6.656,-12.646 z"
           id="path84"
           style="fill:#c87137"
           inkscape:connector-curvature="0" /><path
           d="m 190.556,380.603 c 0,0 27.335,-41.621 -15.522,-30.479 0,0 -22.376,7.163 3.896,33.741 26.274,26.578 11.626,-3.262 11.626,-3.262 z"
           id="path86"
           style="fill:#c87137"
           inkscape:connector-curvature="0" /><path
           d="m 136.403,369.053 c 0,0 40.665,-17.445 3.438,-30.198 0,0 -20.095,-5.662 -13.654,26.916 6.442,32.581 10.216,3.282 10.216,3.282 z"
           id="path88"
           style="fill:#c87137"
           inkscape:connector-curvature="0" /><path
           d="m 104.629,346.461 c 0,0 28.108,-12.058 2.377,-20.875 0,0 -13.89,-3.913 -9.438,18.606 4.453,22.52 7.061,2.269 7.061,2.269 z"
           id="path90"
           style="fill:#c87137"
           inkscape:connector-curvature="0" /><path
           d="m 375.18,103.542 c 0,0 -23.623,-52.802 -39.543,-3.887 0,0 -6.995,26.38 35.457,17.304 42.455,-9.074 4.086,-13.417 4.086,-13.417 z"
           id="path92"
           style="fill:#c87137"
           inkscape:connector-curvature="0" /><path
           d="m 387.788,64.092 c 0,0 5.537,-45.03 -24.979,-18.634 0,0 -15.389,14.88 16.797,25.991 32.19,11.112 8.182,-7.357 8.182,-7.357 z"
           id="path94"
           style="fill:#c87137"
           inkscape:connector-curvature="0" /><path
           d="m 413.602,44.485 c 0,0 24.63,-23.871 -5.856,-22.822 0,0 -16.115,1.453 -2.45,23.268 13.666,21.814 8.306,-0.446 8.306,-0.446 z"
           id="path96"
           style="fill:#c87137"
           inkscape:connector-curvature="0" /><g
           id="g98"
           style="fill:#c87137"><path
             d="m 328.34,319.154 c 0,-10.247 8.111,-18.596 18.264,-18.988 -5.312,-17.491 -23.86,-65.746 -54.184,-10.731 0,0 -15.463,32.171 36.535,34.526 -0.399,-1.535 -0.615,-3.147 -0.615,-4.807 z"
             id="path100"
             style="fill:#c87137"
             inkscape:connector-curvature="0" /><path
             d="m 365.396,313.2 c 0.618,1.873 0.957,3.874 0.957,5.954 0,0.598 -0.032,1.186 -0.084,1.769 5.45,-2.141 3.427,-5.041 -0.873,-7.723 z"
             id="path102"
             style="fill:#c87137"
             inkscape:connector-curvature="0" /></g><path
           d="m 241.445,383.669 c 0,-3.91 1.798,-7.398 4.609,-9.689 -0.49,-0.802 -0.807,-1.289 -0.807,-1.289 0,0 26.205,-52.782 -22.565,-33.605 0,0 -25.273,11.595 9.371,39.09 3.808,3.022 6.937,5.312 9.493,6.999 -0.062,-0.494 -0.101,-0.995 -0.101,-1.506 z"
           id="path104"
           style="fill:#c87137"
           inkscape:connector-curvature="0" /><path
           d="m 352.879,441.033 -26.989,0 c -10.498,0 -19.01,4.814 -19.01,10.751 l 0,73.585 c 0,5.939 8.512,10.751 19.01,10.751 l 5.38,0 c -0.015,-0.347 -0.025,-0.694 -0.025,-1.047 0,-6.918 2.838,-12.524 6.339,-12.524 3.501,0 6.342,5.606 6.342,12.524 0,0.353 -0.012,0.7 -0.026,1.047 l 8.829,0 c -0.336,-1.895 -0.526,-3.926 -0.526,-6.047 0,-10.141 4.158,-18.36 9.291,-18.36 4.946,0 8.979,7.647 9.267,17.281 0.717,-1.134 1.131,-2.351 1.131,-3.625 l 0,-73.585 c -0.002,-5.936 -8.513,-10.751 -19.013,-10.751 z"
           id="path106"
           style="fill:#c87137"
           inkscape:connector-curvature="0" /><path
           d="m 429.636,441.033 -26.991,0 c -10.496,0 -19.009,4.814 -19.009,10.751 l 0,73.585 c 0,5.939 8.513,10.751 19.009,10.751 l 6.479,0 c -0.006,-0.248 -0.018,-0.497 -0.018,-0.749 0,-6.918 2.838,-12.524 6.339,-12.524 3.501,0 6.339,5.606 6.339,12.524 0,0.252 -0.012,0.501 -0.018,0.749 l 7.87,0 c 0.301,0 0.596,-0.017 0.894,-0.025 -0.301,-1.803 -0.469,-3.724 -0.469,-5.723 0,-10.142 4.16,-18.36 9.293,-18.36 4.51,0 8.265,6.345 9.112,14.76 0.104,-0.459 0.18,-0.925 0.18,-1.402 l 0,-73.585 c 0,-5.937 -8.511,-10.752 -19.01,-10.752 z"
           id="path108"
           style="fill:#c87137"
           inkscape:connector-curvature="0" /></g></g></g></svg>