<?xml version="1.0" encoding="UTF-8" standalone="no"?>
<svg
   xmlns:dc="http://purl.org/dc/elements/1.1/"
   xmlns:cc="http://creativecommons.org/ns#"
   xmlns:rdf="http://www.w3.org/1999/02/22-rdf-syntax-ns#"
   xmlns:svg="http://www.w3.org/2000/svg"
   xmlns="http://www.w3.org/2000/svg"
   xmlns:sodipodi="http://sodipodi.sourceforge.net/DTD/sodipodi-0.dtd"
   xmlns:inkscape="http://www.inkscape.org/namespaces/inkscape"
   height="300px"
   width="300px"
   fill="#000000"
   viewBox="0 0 60 61"
   version="1.1"
   x="0px"
   y="0px"
   id="svg2"
   inkscape:version="0.91 r13725"
   sodipodi:docname="grass.svg">
  <metadata
     id="metadata20">
    <rdf:RDF>
      <cc:Work
         rdf:about="">
        <dc:format>image/svg+xml</dc:format>
        <dc:type
           rdf:resource="http://purl.org/dc/dcmitype/StillImage" />
      </cc:Work>
    </rdf:RDF>
  </metadata>
  <defs
     id="defs18" />
  <sodipodi:namedview
     pagecolor="#ffffff"
     bordercolor="#666666"
     borderopacity="1"
     objecttolerance="10"
     gridtolerance="10"
     guidetolerance="10"
     inkscape:pageopacity="0"
     inkscape:pageshadow="2"
     inkscape:window-width="640"
     inkscape:window-height="480"
     id="namedview16"
     showgrid="false"
     inkscape:zoom="0.78666667"
     inkscape:cx="150"
     inkscape:cy="150"
     inkscape:window-x="75"
     inkscape:window-y="24"
     inkscape:window-maximized="0"
     inkscape:current-layer="svg2" />
  <title
     id="title4">47 -Grass- (Solid)</title>
  <desc
     id="desc6">Created with Sketch.</desc>
  <g
     stroke="none"
     stroke-width="1"
     fill="none"
     fill-rule="evenodd"
     id="g8"
     style="fill:#008000">
    <g
       transform="translate(-840.000000, -810.000000)"
       fill="#000000"
       id="g10"
       style="fill:#008000">
      <g
         transform="translate(840.000000, 810.000000)"
         id="g12"
         style="fill:#008000">
        <path
           d="M3.4385,12.5781 C9.6615,14.6461 14.1965,20.9101 15.0305,24.2431 C15.1525,24.7331 15.6265,25.0531 16.1225,24.9931 C16.6235,24.9311 17.0005,24.5051 17.0005,24.0001 C17.0005,18.8551 15.2705,13.8291 11.8525,9.0221 C15.5445,11.0371 21.1935,15.8971 24.0855,22.4071 C24.2865,22.8561 24.7835,23.0961 25.2585,22.9661 C25.7345,22.8391 26.0455,22.3851 25.9945,21.8951 C25.9395,21.3781 24.7005,10.2511 18.7195,2.5561 C21.4775,3.5171 25.6605,6.1441 28.0515,13.3171 C28.1975,13.7521 28.6225,14.0321 29.0755,13.9971 C29.5325,13.9631 29.9075,13.6231 29.9855,13.1711 C29.9965,13.1091 31.0455,7.4741 37.1375,4.7331 C35.9215,7.7091 34.0005,13.3121 34.0005,19.0001 C34.0005,19.4641 34.3195,19.8671 34.7705,19.9741 C35.2165,20.0781 35.6875,19.8621 35.8945,19.4481 C37.4365,16.3631 40.2585,12.6441 43.7115,10.8691 C42.1765,13.7471 40.0005,18.9041 40.0005,25.0001 C40.0005,25.4551 40.3065,25.8521 40.7475,25.9681 C41.1845,26.0811 41.6485,25.8871 41.8715,25.4911 C41.9465,25.3581 48.3285,14.1361 55.3765,10.8781 C53.2185,13.1671 50.4815,16.9351 49.0835,22.2991 C49.0435,22.4471 48.3035,22.7961 48.1595,22.9001 C47.8095,23.1491 47.4735,23.4161 47.1495,23.6971 C46.3805,24.3631 45.6845,25.1091 45.0515,25.9051 C43.6085,27.7201 42.5075,29.7961 41.6045,31.9261 C41.3415,32.5441 41.0985,33.1711 40.8755,33.8051 C40.6505,34.4401 40.5325,35.2271 40.2185,35.8131 C39.8975,35.0761 39.8125,34.1371 39.5915,33.3531 C39.3415,32.4611 39.0595,31.5781 38.7395,30.7081 C38.0795,28.9211 37.2585,27.1761 36.1735,25.6041 C35.3895,24.4691 34.4615,23.4211 33.3575,22.5871 C33.2125,22.4781 33.0565,22.3861 32.9065,22.2851 C32.7395,22.1721 32.5785,22.0511 32.4045,21.9491 C31.7445,21.5611 31.0345,21.2521 30.2705,21.0371 C29.8825,20.9301 29.4645,21.0651 29.2135,21.3841 C28.9645,21.7031 28.9315,22.1411 29.1295,22.4941 C29.1655,22.5571 32.3575,28.3941 32.9175,42.6551 C31.5655,39.5561 30.0005,34.9081 30.0005,30.0001 C30.0005,29.2961 29.2705,28.8151 28.6215,29.0821 C28.1745,29.2661 27.9245,29.8191 27.6865,30.2171 C27.3475,30.7831 27.0255,31.3581 26.7155,31.9401 C25.7265,33.8001 24.8665,35.7291 24.1505,37.7101 C24.1165,37.8041 24.0825,37.8991 24.0485,37.9931 C24.2515,33.4441 24.7505,28.7071 25.8925,26.4521 C26.0985,26.0431 26.0015,25.5461 25.6565,25.2451 C25.3095,24.9451 24.8035,24.9181 24.4285,25.1801 C24.1735,25.3571 19.1345,28.9591 17.5035,36.8931 C16.1055,33.2311 13.6015,28.5821 9.5725,26.7761 C8.4095,20.5421 5.3685,15.3691 3.4385,12.5781 M59.0005,58.0001 L50.9895,58.0001 C50.9275,53.3371 50.8905,43.9031 59.4235,39.9061 C59.8485,39.7071 60.0785,39.2411 59.9765,38.7831 C59.8745,38.3261 59.4685,38.0001 59.0005,38.0001 L58.4855,37.9941 C55.6485,37.9541 50.2755,37.8541 45.6935,46.4041 C46.6885,38.9601 48.9525,27.3451 53.6985,22.7161 C53.9905,22.4321 54.0805,21.9981 53.9245,21.6201 C53.7705,21.2451 53.4055,21.0001 53.0005,21.0001 L52.9935,21.0001 C52.9005,21.0011 52.3405,21.0171 51.4865,21.2571 C54.0345,13.6231 59.4965,9.8711 59.5555,9.8321 C59.9205,9.5871 60.0845,9.1311 59.9565,8.7101 C59.8285,8.2881 59.4405,8.0001 59.0005,8.0001 C52.2025,8.0001 45.6395,16.1511 42.3345,21.0061 C43.4185,14.4221 46.7735,9.6381 46.8145,9.5811 C47.0515,9.2471 47.0615,8.8011 46.8385,8.4571 C46.6165,8.1131 46.2045,7.9411 45.8035,8.0201 C41.9655,8.7871 38.6795,11.6901 36.3275,14.9111 C37.2595,8.7871 39.8625,3.5111 39.8945,3.4471 C40.0715,3.0931 40.0225,2.6681 39.7705,2.3641 C39.5185,2.0591 39.1115,1.9321 38.7295,2.0371 C32.8785,3.6791 30.1585,7.4701 28.9385,10.0941 C24.4275,0.1241 16.3675,0.0001 16.0005,0.0001 C15.5925,0.0001 15.2265,0.2471 15.0745,0.6231 C14.9205,1.0001 15.0105,1.4321 15.3015,1.7161 C19.4695,5.7811 21.7225,11.9161 22.8845,16.3951 C18.2995,10.0901 11.7965,6.0001 9.0005,6.0001 C8.6095,6.0001 8.2545,6.2281 8.0915,6.5821 C7.9285,6.9371 7.9865,7.3551 8.2415,7.6511 C11.2415,11.1521 13.2525,14.7731 14.2545,18.4681 C11.4535,14.6391 6.7975,10.7171 1.1245,10.0081 C0.7105,9.9571 0.3145,10.1631 0.1195,10.5271 C-0.0765,10.8911 -0.0285,11.3371 0.2405,11.6511 C0.2955,11.7161 5.5345,17.9121 7.3905,26.1221 C6.9415,26.0501 6.4815,26.0001 6.0005,26.0001 C5.6255,26.0001 5.2825,26.2101 5.1105,26.5431 C4.9395,26.8761 4.9685,27.2771 5.1865,27.5821 C5.2525,27.6751 10.9075,35.6701 12.5545,44.4631 C10.3755,41.4821 6.6275,38.0001 1.0005,38.0001 C0.5675,38.0001 0.1835,38.2791 0.0495,38.6901 C-0.0845,39.1011 0.0605,39.5521 0.4095,39.8071 C0.4735,39.8541 6.6675,44.5831 6.9715,58.0001 L1.0005,58.0001 C0.4475,58.0001 0.0005,58.4481 0.0005,59.0001 C0.0005,59.5531 0.4475,60.0001 1.0005,60.0001 L7.9985,60.0001 L49.9985,60.0631 L50.0005,60.0631 C50.1095,60.0631 50.2125,60.0351 50.3145,60.0001 L59.0005,60.0001 C59.5525,60.0001 60.0005,59.5531 60.0005,59.0001 C60.0005,58.4481 59.5525,58.0001 59.0005,58.0001"
           id="path14"
           style="fill:#008000" />
      </g>
    </g>
  </g>
</svg>
