<?xml version="1.0" encoding="UTF-8" standalone="no"?>
<svg
   xmlns:osb="http://www.openswatchbook.org/uri/2009/osb"
   xmlns:dc="http://purl.org/dc/elements/1.1/"
   xmlns:cc="http://creativecommons.org/ns#"
   xmlns:rdf="http://www.w3.org/1999/02/22-rdf-syntax-ns#"
   xmlns:svg="http://www.w3.org/2000/svg"
   xmlns="http://www.w3.org/2000/svg"
   xmlns:sodipodi="http://sodipodi.sourceforge.net/DTD/sodipodi-0.dtd"
   xmlns:inkscape="http://www.inkscape.org/namespaces/inkscape"
   height="300px"
   width="300px"
   fill="#000000"
   viewBox="0 0 64 64"
   x="0px"
   y="0px"
   id="svg2"
   version="1.1"
   inkscape:version="0.91 r13725"
   sodipodi:docname="pig-dead.svg">
  <metadata
     id="metadata24">
    <rdf:RDF>
      <cc:Work
         rdf:about="">
        <dc:format>image/svg+xml</dc:format>
        <dc:type
           rdf:resource="http://purl.org/dc/dcmitype/StillImage" />
      </cc:Work>
    </rdf:RDF>
  </metadata>
  <defs
     id="defs22">
    <linearGradient
       id="linearGradient4142"
       osb:paint="solid">
      <stop
         style="stop-color:#df0000;stop-opacity:1;"
         offset="0"
         id="stop4144" />
    </linearGradient>
  </defs>
  <sodipodi:namedview
     pagecolor="#ffffff"
     bordercolor="#666666"
     borderopacity="1"
     objecttolerance="10"
     gridtolerance="10"
     guidetolerance="10"
     inkscape:pageopacity="0"
     inkscape:pageshadow="2"
     inkscape:window-width="1535"
     inkscape:window-height="876"
     id="namedview20"
     showgrid="false"
     inkscape:zoom="1.5733333"
     inkscape:cx="-76.57376"
     inkscape:cy="155.29776"
     inkscape:window-x="65"
     inkscape:window-y="24"
     inkscape:window-maximized="1"
     inkscape:current-layer="svg2" />
  <title
     id="title4">pig-animal-mammal</title>
  <g
     id="g6"
     style="fill:#c83737"
     transform="matrix(-0.99997724,-0.00674671,0.00674671,-0.99997724,63.783343,64.215166)">
    <path
       d="M 18.5,25 A 1.5,1.5 0 1 0 17,26.5 1.5,1.5 0 0 0 18.5,25 Z m -2,0 A 0.5,0.5 0 1 1 17,25.5 0.5,0.5 0 0 1 16.5,25 Z"
       id="path8"
       style="fill:#c83737"
       inkscape:connector-curvature="0" />
    <path
       d="M 21,26.5 A 1.5,1.5 0 1 0 19.5,25 1.5,1.5 0 0 0 21,26.5 Z m 0,-2"
       id="path10"
       style="fill:#c83737"
       inkscape:connector-curvature="0" />
    <path
       d="M 62,23.5 A 3.5,3.5 0 0 0 58.5,20 l -1.5,0 0,2 1.5,0 a 1.5,1.5 0 0 1 0,3 l -0.351,0 A 14.95,14.95 0 0 0 47,20 l -15,0 0,-2.01 a 2.98,2.98 0 0 0 1.12,-0.7 l 0.244,-0.244 A 8.94,8.94 0 0 0 36,10.687 2.689,2.689 0 0 0 33.313,8 L 28.687,8 A 2.683,2.683 0 0 0 26.1,10 L 11.9,10 A 2.683,2.683 0 0 0 9.313,8 L 4.687,8 A 2.689,2.689 0 0 0 2,10.687 8.941,8.941 0 0 0 4.637,17.052 l 0.242,0.242 A 2.985,2.985 0 0 0 6,17.99 L 6,23 A 11.011,11.011 0 0 0 16,33.949 L 16,35 a 14.877,14.877 0 0 0 4,10.156 l 0,8.844 6,0 0,2 8,0 0,-6 4,0 0,4 6,0 0,2 8,0 0,-6.862 A 15.1,15.1 0 0 0 62,35"
       id="path12"
       style="fill:#c83737"
       inkscape:connector-curvature="0" />
    <path
       d="m 14,17 a 1,1 0 0 1 2,0 l 0,1 2,0 0,-1"
       id="path14"
       style="fill:#c83737"
       inkscape:connector-curvature="0" />
    <path
       d="m 22,17 a 1,1 0 0 1 2,0 l 0,1 2,0 0,-1"
       id="path16"
       style="fill:#c83737"
       inkscape:connector-curvature="0" />
    <path
       d="m 21,30 a 5,5 0 0 0 0,-10 l -4,0 a 5,5 0 0 0 0,10 z m -7,-5 a 3,3 0 0 1 3,-3 l 4,0 a 3,3 0 0 1 0,6 l -4,0 a 3,3 0 0 1 -3,-3 z"
       id="path18"
       style="fill:#c83737"
       inkscape:connector-curvature="0" />
  </g>
  <path
     sodipodi:type="star"
     style="fill:#ffffff;fill-opacity:1;stroke:none;stroke-width:0.21333332;stroke-opacity:1"
     id="path4140"
     sodipodi:sides="5"
     sodipodi:cx="39.864407"
     sodipodi:cy="45.423729"
     sodipodi:r1="3.7503231"
     sodipodi:r2="1.8751615"
     sodipodi:arg1="0.86217005"
     sodipodi:arg2="1.4904886"
     inkscape:flatsided="false"
     inkscape:rounded="0"
     inkscape:randomized="0"
     d="m 42.305084,48.271186 -2.290249,-0.978339 -2.104311,1.332017 0.222731,-2.48048 L 36.216163,44.554682 38.644068,44 l 0.919482,-2.314507 1.277798,2.137668 2.485363,0.159258 -1.638183,1.875834 z"
     inkscape:transform-center-x="0.092970347"
     inkscape:transform-center-y="-0.26855103" />
  <path
     sodipodi:type="star"
     style="fill:#ffffff;fill-opacity:1;stroke:none;stroke-width:0.21333332;stroke-opacity:1"
     id="path4142"
     sodipodi:sides="5"
     sodipodi:cx="49.355935"
     sodipodi:cy="45.559322"
     sodipodi:r1="4.2447391"
     sodipodi:r2="2.1223695"
     sodipodi:arg1="1.1071487"
     sodipodi:arg2="1.7354672"
     inkscape:flatsided="false"
     inkscape:rounded="0"
     inkscape:randomized="0"
     d="m 51.254239,49.355932 -2.24622,-1.702951 -2.676267,0.884954 0.925483,-2.662523 -1.668653,-2.271816 2.8182,0.05742 1.644982,-2.289012 0.816261,2.698011 2.685308,0.857128 -2.313723,1.610041 z"
     inkscape:transform-center-x="-0.21502268"
     inkscape:transform-center-y="-0.19535451" />
</svg>
