<?xml version="1.0" encoding="UTF-8" standalone="no"?>
<svg
   xmlns:dc="http://purl.org/dc/elements/1.1/"
   xmlns:cc="http://creativecommons.org/ns#"
   xmlns:rdf="http://www.w3.org/1999/02/22-rdf-syntax-ns#"
   xmlns:svg="http://www.w3.org/2000/svg"
   xmlns="http://www.w3.org/2000/svg"
   xmlns:sodipodi="http://sodipodi.sourceforge.net/DTD/sodipodi-0.dtd"
   xmlns:inkscape="http://www.inkscape.org/namespaces/inkscape"
   height="300px"
   width="300px"
   fill="#000000"
   viewBox="0 0 64 64"
   x="0px"
   y="0px"
   id="svg2"
   version="1.1"
   inkscape:version="0.91 r13725"
   sodipodi:docname="pig.svg">
  <metadata
     id="metadata24">
    <rdf:RDF>
      <cc:Work
         rdf:about="">
        <dc:format>image/svg+xml</dc:format>
        <dc:type
           rdf:resource="http://purl.org/dc/dcmitype/StillImage" />
      </cc:Work>
    </rdf:RDF>
  </metadata>
  <defs
     id="defs22" />
  <sodipodi:namedview
     pagecolor="#ffffff"
     bordercolor="#666666"
     borderopacity="1"
     objecttolerance="10"
     gridtolerance="10"
     guidetolerance="10"
     inkscape:pageopacity="0"
     inkscape:pageshadow="2"
     inkscape:window-width="640"
     inkscape:window-height="480"
     id="namedview20"
     showgrid="false"
     inkscape:zoom="0.78666667"
     inkscape:cx="150"
     inkscape:cy="150"
     inkscape:window-x="380"
     inkscape:window-y="139"
     inkscape:window-maximized="0"
     inkscape:current-layer="svg2" />
  <title
     id="title4">pig-animal-mammal</title>
  <g
     id="g6"
     style="fill:#ff8080">
    <path
       d="M18.5,25A1.5,1.5,0,1,0,17,26.5,1.5,1.5,0,0,0,18.5,25Zm-2,0a.5.5,0,1,1,.5.5A.5.5,0,0,1,16.5,25Z"
       id="path8"
       style="fill:#ff8080" />
    <path
       d="M21,26.5A1.5,1.5,0,1,0,19.5,25,1.5,1.5,0,0,0,21,26.5Zm0-2a.5.5,0,1,1-.5.5A.5.5,0,0,1,21,24.5Z"
       id="path10"
       style="fill:#ff8080" />
    <path
       d="M62,23.5A3.5,3.5,0,0,0,58.5,20H57v2h1.5a1.5,1.5,0,0,1,0,3h-.351A14.95,14.95,0,0,0,47,20H32V17.99a2.98,2.98,0,0,0,1.12-.7l.244-.244A8.94,8.94,0,0,0,36,10.687,2.689,2.689,0,0,0,33.313,8H28.687A2.683,2.683,0,0,0,26.1,10H11.9A2.683,2.683,0,0,0,9.313,8H4.687A2.689,2.689,0,0,0,2,10.687a8.941,8.941,0,0,0,2.637,6.365l.242.242A2.985,2.985,0,0,0,6,17.99V23A11.011,11.011,0,0,0,16,33.949V35a14.877,14.877,0,0,0,4,10.156V54h6v2h8V50h4v4h6v2h8V49.138A15.1,15.1,0,0,0,62,35a14.9,14.9,0,0,0-2.443-8.181A3.493,3.493,0,0,0,62,23.5ZM28.687,10h4.627a.687.687,0,0,1,.687.687,6.957,6.957,0,0,1-2.049,4.949l-.244.243a1,1,0,0,1-1.415,0l-.242-.242a6.983,6.983,0,0,1-2.035-4.676L28,10.671A.685.685,0,0,1,28.687,10ZM4,10.687A.687.687,0,0,1,4.687,10H9.313a.685.685,0,0,1,.683.671l-.011.29a6.982,6.982,0,0,1-2.034,4.675l-.244.243a1,1,0,0,1-1.415,0l-.242-.242A6.958,6.958,0,0,1,4,10.687ZM8,23V18c.023-.008.043-.023.066-.032a2.954,2.954,0,0,0,.374-.181c.062-.034.126-.061.186-.1a3.023,3.023,0,0,0,.494-.4l.244-.244a8.954,8.954,0,0,0,.85-1c.042-.057.086-.111.127-.168a8.916,8.916,0,0,0,.642-1.061c.037-.071.071-.143.106-.215a8.953,8.953,0,0,0,.47-1.164c.015-.047.025-.094.039-.141a9.021,9.021,0,0,0,.275-1.207c.005-.032.017-.062.022-.094H26.105c0,.032.017.063.022.095A9.03,9.03,0,0,0,26.4,13.3c.014.047.025.1.04.143a8.946,8.946,0,0,0,.47,1.163c.035.072.069.144.106.216a8.917,8.917,0,0,0,.642,1.061c.041.057.085.112.127.169a8.954,8.954,0,0,0,.85,1l.242.242a3.031,3.031,0,0,0,.5.4c.059.038.124.065.186.1a2.96,2.96,0,0,0,.374.181c.023.009.043.024.066.032v5a9.01,9.01,0,0,1-9,9H17A9.01,9.01,0,0,1,8,23ZM22,52V46.983c.063.047.13.088.193.134q.273.2.554.386c.112.074.224.148.337.219.2.125.4.243.608.358.1.058.2.119.309.174.3.161.611.314.924.453l.046.02c.312.138.63.263.951.379.026.009.051.022.077.031V52Zm18,0V50h4v2Zm10.715-4.546L50,47.667V54H46V48H32v6H28V47.667l-.715-.213A13.053,13.053,0,0,1,18,35V34h3A11.012,11.012,0,0,0,32,23V22H47a13,13,0,0,1,3.715,25.454Z"
       id="path12"
       style="fill:#ff8080" />
    <path
       d="M14,17a1,1,0,0,1,2,0v1h2V17a3,3,0,0,0-6,0v1h2Z"
       id="path14"
       style="fill:#ff8080" />
    <path
       d="M22,17a1,1,0,0,1,2,0v1h2V17a3,3,0,0,0-6,0v1h2Z"
       id="path16"
       style="fill:#ff8080" />
    <path
       d="M21,30a5,5,0,0,0,0-10H17a5,5,0,0,0,0,10Zm-7-5a3,3,0,0,1,3-3h4a3,3,0,0,1,0,6H17A3,3,0,0,1,14,25Z"
       id="path18"
       style="fill:#ff8080" />
  </g>
</svg>
